# xmcd CD database file
#
# Track frame offsets:
#	150
#	25763
#	56684
#	84455
#	114078
#	155669
#	177285
#	202676
#	217550
#	236810
#
# Disc length: 3380 seconds
#
# Revision: 0
# Processed by: cddbd v1.5.2PL0 Copyright (c) Steve Scherf et al.
# Submitted via: CDex 1.70beta2
#
DISCID=720d320a
DTITLE=Philippe Le Baraillec - Invisible woud
DYEAR=2008
DGENRE=Jazz
TTITLE0=Dry tears
TTITLE1=Invisible wound
TTITLE2=Song for Lilian
TTITLE3=The empty chair
TTITLE4=Interlude/Bolero
TTITLE5=Loosers are nobles
TTITLE6=Otaku
TTITLE7=The wizzard
TTITLE8=caartoons
TTITLE9=Nardis
EXTD=YEAR: 2008
EXTT0=
EXTT1=
EXTT2=
EXTT3=
EXTT4=
EXTT5=
EXTT6=
EXTT7=
EXTT8=
EXTT9=
PLAYORDER=
